<?xml version="1.0" encoding="UTF-8"?>
<svg xmlns="http://www.w3.org/2000/svg" xmlns:xlink="http://www.w3.org/1999/xlink" width="74px" height="100px" viewBox="0 0 74 100" version="1.1">
<g id="surface1">
<path style=" stroke:none;fill-rule:nonzero;fill:rgb(32.549021%,50.980395%,63.137257%);fill-opacity:1;" d="M 23.859375 77.304688 C 23.859375 77.304688 20.046875 79.523438 26.574219 80.273438 C 34.484375 81.175781 38.527344 81.046875 47.242188 79.394531 C 47.242188 79.394531 49.535156 80.832031 52.734375 82.078125 C 33.195312 90.453125 8.511719 81.59375 23.859375 77.304688 M 21.472656 66.375 C 21.472656 66.375 17.191406 69.542969 23.726562 70.21875 C 32.175781 71.089844 38.851562 71.160156 50.398438 68.9375 C 50.398438 68.9375 51.992188 70.558594 54.503906 71.441406 C 30.878906 78.351562 4.5625 71.988281 21.472656 66.375 "/>
<path style=" stroke:none;fill-rule:nonzero;fill:rgb(90.588236%,43.529412%,0%);fill-opacity:1;" d="M 41.601562 47.835938 C 46.417969 53.378906 40.335938 58.367188 40.335938 58.367188 C 40.335938 58.367188 52.5625 52.058594 46.949219 44.152344 C 41.703125 36.785156 37.683594 33.121094 59.453125 20.496094 C 59.453125 20.496094 25.28125 29.03125 41.601562 47.835938 "/>
<path style=" stroke:none;fill-rule:nonzero;fill:rgb(32.549021%,50.980395%,63.137257%);fill-opacity:1;" d="M 67.445312 85.386719 C 67.445312 85.386719 70.269531 87.714844 64.335938 89.511719 C 53.058594 92.929688 17.390625 93.960938 7.484375 89.648438 C 3.921875 88.101562 10.601562 85.949219 12.703125 85.5 C 14.894531 85.023438 16.144531 85.113281 16.144531 85.113281 C 12.183594 82.320312 -9.457031 90.589844 5.152344 92.957031 C 44.996094 99.421875 77.78125 90.050781 67.445312 85.386719 M 25.695312 55.050781 C 25.695312 55.050781 7.550781 59.359375 19.269531 60.925781 C 24.214844 61.589844 34.078125 61.4375 43.265625 60.667969 C 50.773438 60.035156 58.3125 58.6875 58.3125 58.6875 C 58.3125 58.6875 55.667969 59.824219 53.75 61.128906 C 35.328125 65.976562 -0.261719 63.722656 9.984375 58.765625 C 18.648438 54.578125 25.695312 55.050781 25.695312 55.050781 M 58.238281 73.242188 C 76.96875 63.511719 68.308594 54.160156 62.265625 55.417969 C 60.78125 55.726562 60.121094 55.996094 60.121094 55.996094 C 60.121094 55.996094 60.671875 55.132812 61.722656 54.761719 C 73.679688 50.558594 82.875 67.160156 57.863281 73.734375 C 57.863281 73.734375 58.152344 73.476562 58.238281 73.242188 "/>
<path style=" stroke:none;fill-rule:nonzero;fill:rgb(90.588236%,43.529412%,0%);fill-opacity:1;" d="M 46.949219 0.105469 C 46.949219 0.105469 57.320312 10.484375 37.109375 26.4375 C 20.90625 39.234375 33.414062 46.53125 37.105469 54.871094 C 27.644531 46.335938 20.703125 38.820312 25.359375 31.828125 C 32.195312 21.5625 51.132812 16.585938 46.949219 0.105469 "/>
<path style=" stroke:none;fill-rule:nonzero;fill:rgb(32.549021%,50.980395%,63.137257%);fill-opacity:1;" d="M 27.535156 99.613281 C 45.511719 100.765625 73.117188 98.976562 73.769531 90.46875 C 73.769531 90.46875 72.511719 93.695312 58.914062 96.253906 C 43.570312 99.140625 24.644531 98.804688 13.421875 96.953125 C 13.421875 96.953125 15.71875 98.855469 27.535156 99.613281 "/>
</g>
</svg>
