<?xml version="1.0" encoding="UTF-8"?>
<svg xmlns="http://www.w3.org/2000/svg" xmlns:xlink="http://www.w3.org/1999/xlink" width="82px" height="100px" viewBox="0 0 82 99" version="1.1">
<defs>
<linearGradient id="linear0" gradientUnits="userSpaceOnUse" x1="26.648937" y1="20.603781" x2="135.665253" y2="114.397667" gradientTransform="matrix(0.443542,0,0,0.446264,-11.819922,-9.19472)">
<stop offset="0" style="stop-color:rgb(35.294118%,62.352941%,83.137255%);stop-opacity:1;"/>
<stop offset="1" style="stop-color:rgb(18.823529%,41.176471%,59.607843%);stop-opacity:1;"/>
</linearGradient>
<linearGradient id="linear1" gradientUnits="userSpaceOnUse" x1="150.961105" y1="192.351761" x2="112.031441" y2="137.272995" gradientTransform="matrix(0.443542,0,0,0.446264,-11.819922,-9.19472)">
<stop offset="0" style="stop-color:rgb(100%,83.137255%,23.137255%);stop-opacity:1;"/>
<stop offset="1" style="stop-color:rgb(100%,90.980392%,45.098039%);stop-opacity:1;"/>
</linearGradient>
<filter id="alpha" filterUnits="objectBoundingBox" x="0%" y="0%" width="100%" height="100%">
  <feColorMatrix type="matrix" in="SourceGraphic" values="0 0 0 0 1 0 0 0 0 1 0 0 0 0 1 0 0 0 1 0"/>
</filter>
<mask id="mask0">
  <g filter="url(#alpha)">
<rect x="0" y="0" width="82" height="99" style="fill:rgb(0%,0%,0%);fill-opacity:0.443137;stroke:none;"/>
  </g>
</mask>
<radialGradient id="radial0" gradientUnits="userSpaceOnUse" cx="61.518883" cy="132.285751" fx="61.518883" fy="132.285751" r="29.036913" gradientTransform="matrix(0.0000000137906,-0.18853,0.831565,0.000000297907,-65.99486,111.934433)">
<stop offset="0" style="stop-color:rgb(72.156863%,72.156863%,72.156863%);stop-opacity:0.498039;"/>
<stop offset="1" style="stop-color:rgb(49.803922%,49.803922%,49.803922%);stop-opacity:0;"/>
</radialGradient>
<clipPath id="clip1">
  <rect x="0" y="0" width="82" height="99"/>
</clipPath>
<g id="surface5" clip-path="url(#clip1)">
<path style=" stroke:none;fill-rule:nonzero;fill:url(#radial0);" d="M 72.339844 100.335938 C 72.339844 97.3125 59.65625 94.863281 44.007812 94.863281 C 28.363281 94.863281 15.679688 97.3125 15.679688 100.335938 C 15.679688 103.359375 28.363281 105.8125 44.007812 105.8125 C 59.65625 105.8125 72.339844 103.359375 72.339844 100.335938 Z M 72.339844 100.335938 "/>
</g>
</defs>
<g id="surface1">
<path style=" stroke:none;fill-rule:nonzero;fill:url(#linear0);" d="M 43.300781 0 C 39.6875 0.015625 36.234375 0.324219 33.199219 0.859375 C 24.253906 2.433594 22.628906 5.730469 22.628906 11.8125 L 22.628906 19.839844 L 43.769531 19.839844 L 43.769531 22.515625 L 14.695312 22.515625 C 8.550781 22.515625 3.171875 26.195312 1.488281 33.195312 C -0.453125 41.222656 -0.539062 46.230469 1.488281 54.609375 C 2.992188 60.84375 6.578125 65.289062 12.722656 65.289062 L 19.992188 65.289062 L 19.992188 55.664062 C 19.992188 48.710938 26.03125 42.578125 33.199219 42.578125 L 54.316406 42.578125 C 60.191406 42.578125 64.886719 37.753906 64.886719 31.871094 L 64.886719 11.8125 C 64.886719 6.101562 60.050781 1.8125 54.316406 0.859375 C 50.683594 0.257812 46.914062 -0.015625 43.300781 0 Z M 31.867188 6.457031 C 34.050781 6.457031 35.835938 8.265625 35.835938 10.484375 C 35.835938 12.699219 34.050781 14.488281 31.867188 14.488281 C 29.675781 14.488281 27.902344 12.699219 27.902344 10.484375 C 27.902344 8.265625 29.675781 6.457031 31.867188 6.457031 Z M 31.867188 6.457031 "/>
<path style=" stroke:none;fill-rule:nonzero;fill:url(#linear1);" d="M 67.523438 22.515625 L 67.523438 31.871094 C 67.523438 39.125 61.351562 45.226562 54.316406 45.226562 L 33.199219 45.226562 C 27.414062 45.226562 22.628906 50.160156 22.628906 55.933594 L 22.628906 75.992188 C 22.628906 81.703125 27.609375 85.0625 33.199219 86.699219 C 39.890625 88.660156 46.308594 89.015625 54.316406 86.699219 C 59.636719 85.164062 64.886719 82.074219 64.886719 75.992188 L 64.886719 67.964844 L 43.769531 67.964844 L 43.769531 65.289062 L 75.457031 65.289062 C 81.601562 65.289062 83.890625 61.019531 86.027344 54.609375 C 88.234375 48.007812 88.140625 41.664062 86.027344 33.195312 C 84.507812 27.101562 81.609375 22.515625 75.457031 22.515625 Z M 55.644531 73.316406 C 57.835938 73.316406 59.613281 75.105469 59.613281 77.320312 C 59.613281 79.539062 57.835938 81.347656 55.644531 81.347656 C 53.460938 81.347656 51.679688 79.539062 51.679688 77.320312 C 51.679688 75.105469 53.460938 73.316406 55.644531 73.316406 Z M 55.644531 73.316406 "/>
<use xlink:href="#surface5" mask="url(#mask0)"/>
</g>
</svg>
